<svg xmlns="http://www.w3.org/2000/svg" viewBox="0 0 600.04 708.38"><defs><style>.cls-1{fill:#efc4b9;}.cls-2{fill:#ce6465;}.cls-3{fill:none;stroke:#fff;stroke-miterlimit:10;stroke-width:2px;}.cls-4{fill:#fff;}</style></defs><title>Ресурс 3</title><g id="Слой_2" data-name="Слой 2"><g id="Слой_1-2" data-name="Слой 1"><path class="cls-1" d="M100.55,636.79c31.84-12.52,57.75-49.68,77.37-109.4l71.65,19.38c-13.15,61.46-9.51,106.62,11.68,133.48Z"/><path class="cls-1" d="M91.53,626c43.8,18.67,137.72,45.59,184.17,49.8,10.51.95,16,25.44,7,28.83C245.66,718.67,104,692,71.57,643c-7.11-10.75,11-20.81,20-17"/><path class="cls-1" d="M447.3,446.37c5.5-16.38,21.7-23.66,47.61-33.12,61.17-22.33,94.91-21.13,104.32-78.47,4-24.56-7.64-50-21.54-65-22.45-24.3-59.52-26.59-76.8-26.5l-16.3,35.2c12.89-1,47.53,8.93,56.32,32.19C566.08,377.25,455,347,408,426.56c-22.21,37.55,32,89.48,49.2,79.25,41.44-24.72-18.52-33.69-9.88-59.44"/><path class="cls-1" d="M69.41,318.46C71.85,302.37,60.7,289,41.9,269.37c-44.38-46.28-62.34-134.9-9.39-156.62,30-12.3,84.83,8.13,100.15,16.05l-8.59,49.27c-11-6.71-59.69-30.87-77.17-14.7C16.53,191.47,107,232.5,113.22,319.86,116.16,361.1,44.7,379.58,34,363.31,8.25,324,65.56,343.75,69.41,318.46"/><path class="cls-1" d="M556.34,117.19C514.59,90.35,196.3-3.6,133.36,4.7,97.07,9.48,94,38.08,99.84,59.78c8.83,32.79,25,33.07,18.87,72.11-23.6,150.57-15.7,335.6,78,386.19,17.86,9.64,68.6,12.48,68.6,12.48C369,508.79,448.52,418.16,509.14,233c10.53-32.17,45.28-16.24,67.17-45.57,14.59-19.53,5.78-53.7-20-70.24"/><path class="cls-1" d="M169.72,493.36c21.36,11.25,80.94,27,104.78,26.76,5.39-.06,2.12,20.22-2.81,23.56-20.32,13.74-97.07,6.33-110.51-24.56-3.35-7.7,4.17-28.06,8.54-25.76"/><path class="cls-2" d="M481.8,170.18c-43.68-5.42-98-16.67-152.87-31.68-58.78-16.08-110.82-35.46-150.49-56-41.8-21.69-58.71-37.69-63.31-54-2.81-9.95,4-20.71,18.23-23.79,23.15-5,66.76-1.15,92.46,2a934.61,934.61,0,0,1,129,25.88C411.06,48,465.58,69.1,508.33,92c24.78,13.28,64.35,25,67.95,54.1,3.16,25.53-11.67,34.33-94.48,24.06"/><path class="cls-3" d="M535.36,175.64c-13.71,0-31.34-1.4-53.72-4.18-43.74-5.43-98.09-16.69-153-31.72-58.86-16.1-111-35.52-150.74-56.15s-59-37-64-54.75a17.78,17.78,0,0,1,2-14.12c3.35-5.59,9.47-9.59,17.22-11.28C158.2-2,206.41,3,226,5.46A935.89,935.89,0,0,1,355.14,31.38c56.35,15.42,111,36.55,153.8,59.5,4.88,2.62,10.3,5.16,16,7.84C548.23,109.61,574.59,122,577.56,146c1.21,9.78-.32,16.2-4.95,20.83C566.66,172.74,555.06,175.64,535.36,175.64ZM482,168.91c53.64,6.65,79.38,5.51,88.83-3.94,4-4,5.32-9.78,4.21-18.69-2.79-22.6-28.47-34.62-51.12-45.22-5.76-2.71-11.21-5.26-16.16-7.91-42.66-22.87-97.09-43.92-153.26-59.28A932,932,0,0,0,225.66,8c-19.43-2.41-67.3-7.44-92-2.06-7,1.53-12.57,5.11-15.56,10.09a15.24,15.24,0,0,0-1.7,12.09C121.16,45.1,139.9,61,179,81.31c39.6,20.55,91.55,39.89,150.24,55.95C384.11,152.25,438.34,163.5,482,168.91Z"/><path class="cls-2" d="M543.47,141.71c9.86,15.67-85.78,7.4-199.8-23.21S154.07,49.59,154.76,28.77c.67-20.44,83.67,11.92,198.92,33.45,116.08,21.68,180.67,65,189.79,79.49"/><path class="cls-4" d="M254.88,490.19a1.33,1.33,0,0,1-1.38-1.32,1.27,1.27,0,0,1,1.32-1.26c.58,0,61.62.45,117.38-81,43.16-63.07,68.9-166,69.16-167a1.29,1.29,0,0,1,2.5.62c-.26,1-26.12,104.37-69.54,167.84C318.93,489,258.06,490.19,254.88,490.19"/></g></g></svg>