<svg xmlns="http://www.w3.org/2000/svg" viewBox="0 0 709.85 584.32"><defs><style>.cls-1{fill:#fff;}.cls-2{fill:#1a232d;}.cls-3{fill:#2d3542;}.cls-4{fill:#d8a485;}.cls-5{fill:#b4d8d0;}.cls-6{fill:#374557;}.cls-7{fill:#e2b893;}.cls-8{fill:#efc4b9;}.cls-9{fill:#a2b4c3;}.cls-10{opacity:0.1;}</style></defs><title>Ресурс 1</title><g id="Слой_2" data-name="Слой 2"><g id="Слой_1-2" data-name="Слой 1"><path class="cls-1" d="M704.59,160.67c18,85.38-12.49,180.61-59.51,255-48,75.27-112.51,129.69-184.79,153.68-73,24.21-145.33,16.42-218.11-4.63-71.79-21.88-144-57-193.45-106.52C-53.69,364.43,6.36,207.92,219.26,82.36c211.51-125.25,455-99.15,485.33,78.31"/><path class="cls-2" d="M491.54,222.71s6.36-52.45,46.89-52.45c42.93,0,69.16-1.83,92.19,1.59,19.89,3,46.89,20.67,39.74,69.94C660,312.92,629,435.7,629,435.7H447L486,251.32Z"/><path class="cls-3" d="M486.82,222.71s5.68-52.45,41.91-52.45c38.36,0,61.81-1.83,82.39,1.59,17.78,3,41.91,20.67,35.52,69.94C637.41,312.92,609.7,435.7,609.7,435.7H447l34.81-184.38Z"/><path class="cls-4" d="M301.57,128.76l4.7-27.41,19.38-7.83s.2,6.26-4.5,10.18l-4.7,3.91-4.7,16.45Z"/><path class="cls-5" d="M448,138.94s32.89,1.56,71.25,21.14,30.54,21.14,39.15,36,25.84,95.53,25.84,95.53l-68.9,5.47,27.4,118.24-191.84,9.4-3.13-116.67S309.4,265,300,267.35s-7.83-116.67,73.6-119.8S448,138.94,448,138.94"/><polygon class="cls-6" points="297.46 148.72 324.57 178.16 364.06 107.1 329.38 87.82 297.46 148.72"/><path class="cls-4" d="M340.33,290.84S300,407.12,245.2,428.26,276.52,256.39,293.74,247s46.59,43.85,46.59,43.85"/><path class="cls-4" d="M514.75,292.6s9.2,67.15,21.73,99.25,16,47.15,32.3,32.89c14.09-12.34,22.51-45.42,22.51-57.16s-11.94-76.15-11.94-76.15Z"/><path class="cls-4" d="M544.31,364.45s-165.22,42.28-181.66,39.93-53.25-16.44-53.25-16.44-28.18,24.27-32.88,29,9.39,14.09,20.36,16.44,245.86,0,245.86,0,45.42,0,26.63-36.8-25.06-32.1-25.06-32.1"/><path class="cls-6" d="M420.59,73.16s-.78-28.19-3.13-39.93S404.15,16,387.7,10.52s-14.09-3.92-10.17-7-10.18-6.26-27.41.79-44.63,25-25.06,54,93.18,45.42,95.53,14.88"/><path class="cls-7" d="M455.44,139.33s-12.92-.39-21.54-10.57S419,106.05,421.37,97.43s7.05-37.58-3.91-31.31-7.83,5.48-10.18,11-3.13,1.56-5.48-4.7-10.18-17.23-16.44-18.79S379.09,30.88,383,26.18s-17.23,4.7-32.11,7-21.14,1.57-27.4,14.88-5.48,27.4-1.57,41.5,21.14,44.63,23.49,51.67.79,8.62,13.32,8.62,7,.78,6.26,10.18-3.92,43.85,26.62,45.41,57.55-9.79,63.82-66.16"/><path class="cls-7" d="M347.77,138.15c0,7.83-74.94,251-100.22,287.76-12.92,18.79-32.5-20.36-34.06-47s84.95-193,84.95-193l-10.18-34.46s-6.26-.78,7.83-19.57,18-18.79,18-18.79l11.75,5.48,7,12.52s-8.77,20.32-14.09,18.8c-5.48-1.57,2.35-7.05-3.92-8.62a13.25,13.25,0,0,0-11,2.35l14.88,26.63s7.05,6.26,12.53-3.92,16.44-34.45,16.44-28.19"/><path class="cls-4" d="M318.8,149.9c-5.48-1.57,2.35-7.05-3.92-8.62a13.25,13.25,0,0,0-11,2.35l14.88,26.62s7.05,6.27,12.53-3.91S345,134.24,345,140.5c0,3.33-10.84,46.88-28.55,101.27-.17-16.56.52-37.5,3.1-45.67,4.7-14.88-2.35-11.75-7.83-16.45s-18-34.45-18-34.45L305.49,135a49.9,49.9,0,0,0,11-1.57c6.26-1.56,9.4-14.87,9.4-14.87l7,12.52s-8.77,20.32-14.09,18.8"/><path class="cls-8" d="M19,262.52H184.6c4.09,0,8.6,3.31,10.09,7.4l55.89,153.56H70.2L14.31,269.92c-1.49-4.09.62-7.4,4.7-7.4"/><path class="cls-9" d="M394.36,422.57v4.55a7.28,7.28,0,0,1-7.27,7.27h-311a7.27,7.27,0,0,1-7.27-7.27v-4.55Z"/><path class="cls-9" d="M133.32,349.79c3.23,7.36,1.2,15.37-4.55,17.9s-13-1.39-16.26-8.75-1.2-15.37,4.55-17.9,13,1.4,16.26,8.75"/><path class="cls-4" d="M412.76,108.4s-7.83,20.36-14.09,26.62-31.32,12.53-39.93,14.88,2.34-2.35,22.7,3.91,47,19.58,47,10.18-.39-26.62-3.52-32.89-12.14-22.7-12.14-22.7"/><g class="cls-10"><path class="cls-2" d="M30,438A168.58,168.58,0,0,0,48.73,458.2c49.43,49.5,121.66,84.64,193.45,106.52,72.78,21,145.12,28.84,218.11,4.63C525.2,547.81,583.82,501.72,629.87,438Z"/></g></g></g></svg>