<svg xmlns="http://www.w3.org/2000/svg" viewBox="0 0 419.44 521.24"><defs><style>.cls-1{fill:#b4d8d0;}</style></defs><title>Ресурс 1</title><g id="Слой_2" data-name="Слой 2"><g id="Слой_1-2" data-name="Слой 1"><path class="cls-1" d="M419.26,0H0V467.78a53.46,53.46,0,0,0,53.46,53.46h1.68c32.13,0,58.17-26.5,58.17-59.19V419.26H419.44ZM302,170.26h8.26v6.19H302ZM197.53,62.05l18.7,57.22,19.26-57.22h9.75l19.83,57.22L283.2,62.05H300l-28.56,79.32H258.72l-9.86-24.93-8.38-25-8.27,25.26-9.63,24.71h-12.7L180.76,62.05Zm96.26,114.4h-8.26v-6.19h8.26Zm-16.52,0H269v-6.19h8.26Zm-16.52,0h-8.26v-6.19h8.26Zm-16.52,0H236v-6.19h8.25ZM116.93,61.79h57.85V75.92H131.39V93.7h41.84v13.58H131.39v17.44h43.39v14.35H116.93Zm61.24,114.66h-8.26v-6.19h8.26Zm-16.52,0h-8.26v-6.19h8.26Zm-16.52,0h-8.26v-6.19h8.26Zm-16.52,0h-8.25v-6.19h8.25ZM37.93,62.05H50.06l38.86,49.18V62.05h17v79.32H94.59v.11L54.93,89.26v52.11h-17Zm74.17,114.4h-8.26v-6.19h8.26Zm-16.52,0H87.32v-6.19h8.26Zm-16.52,0H70.81v-6.19h8.25Zm-16.51,0H54.29v-6.19h8.26Zm-24.78-6.19H46v6.19H37.77ZM192.18,339.69H45.8V241.62H192.18Zm2.5-163.24h-8.25v-6.19h8.25Zm16.52,0h-8.26v-6.19h8.26Zm8.26-6.19h8.26v6.19h-8.26ZM346.58,326.51H221.94v-6.2H346.58Zm0-47.45H221.94v-6.2H346.58Zm0-48.87H221.94V224H346.58Zm-28-59.93h8.26v6.19h-8.26Zm16.52,0h8.26v6.19h-8.26Zm1.58-29.2c-15.79,0-27.94-4.86-33.68-19l12.15-6.29c3.42,8.5,12.36,12.25,21.75,12.25,9.16,0,17.77-3.2,17.77-11.59,0-7.29-7.61-10.27-17.88-11.37C321,103.19,306.41,99,306.41,81.66c0-15.89,15.67-22.41,29.92-22.52,12,0,24.5,3.42,30.35,15.35l-11.59,6c-2.65-4.42-9.93-8.61-18.32-8.61-10.82,0-16,4.52-16,10.26,0,6.74,7.95,8.62,17.22,9.72,16.12,2,31.13,6.18,31.13,24.62,0,17.22-15.23,24.62-32.45,24.62"/></g></g></svg>